<?xml version="1.0" standalone="no"?>
<!DOCTYPE svg PUBLIC "-//W3C//DTD SVG 20010904//EN"
 "http://www.w3.org/TR/2001/REC-SVG-20010904/DTD/svg10.dtd">
<svg version="1.0" xmlns="http://www.w3.org/2000/svg"
 width="260.000000pt" height="260.000000pt" viewBox="0 0 260.000000 260.000000"
 preserveAspectRatio="xMidYMid meet">
<metadata>
Created by potrace 1.11, written by Peter Selinger 2001-2013
</metadata>
<g transform="translate(0.000000,260.000000) scale(0.100000,-0.100000)"
fill="#000000" stroke="none">
<path d="M1179 2582 c-229 -76 -325 -359 -187 -554 74 -103 175 -155 308 -159
153 -4 293 -63 399 -169 108 -108 161 -229 166 -383 6 -160 -51 -303 -165
-417 -101 -101 -221 -155 -365 -166 -123 -9 -144 -13 -199 -40 -144 -71 -225
-221 -204 -378 37 -274 354 -405 579 -240 89 65 138 161 146 284 5 84 34 203
61 252 102 190 270 298 487 313 110 8 157 19 212 51 62 36 111 91 146 164 29
59 32 74 31 155 -1 114 -27 178 -106 256 -65 63 -140 97 -238 104 -119 10
-147 14 -196 31 -151 50 -271 155 -338 295 -41 84 -51 128 -60 265 -8 110 -44
186 -124 261 -85 81 -237 113 -353 75z"/>
<path d="M273 1644 c-202 -52 -319 -270 -252 -469 52 -151 188 -248 350 -247
287 3 458 332 296 569 -87 126 -245 185 -394 147z"/>
</g>
</svg>
